<svg xmlns="http://www.w3.org/2000/svg" width="17.829" height="15.128" viewBox="0 0 17.829 15.128"><defs><style>.a{fill:#7e8ea9;}</style></defs><g transform="translate(-172 -392)"><path class="a" d="M10.8,15H3V0h7.8a1.183,1.183,0,0,1,.848.366A1.288,1.288,0,0,1,12,1.251v12.5A1.227,1.227,0,0,1,10.8,15ZM5.25,7.5c-.248,0-.45.28-.45.625s.2.625.45.625h4.5c.248,0,.45-.28.45-.625S10,7.5,9.75,7.5Zm0-3.126c-.248,0-.45.28-.45.625s.2.625.45.625h4.5c.248,0,.45-.28.45-.625s-.2-.625-.45-.625ZM1.8,15H1.2A1.227,1.227,0,0,1,0,13.75V1.251A1.268,1.268,0,0,1,.352.366,1.183,1.183,0,0,1,1.2,0h.6V15Z" transform="translate(172 392)"/><path class="a" d="M0,11.975V4.406H3.784v7.568L1.892,15.128ZM0,3.145V1.883a1.892,1.892,0,0,1,3.784.009V3.145Z" transform="translate(186.045 392)"/></g></svg>