<svg xmlns="http://www.w3.org/2000/svg" width="23.96" height="22.56" viewBox="0 0 23.96 22.56"><defs><style>.a{fill:#001f55;}</style></defs><path class="a" d="M1.132,19.457l-2.109-7.8a.711.711,0,0,1,.186-.691.721.721,0,0,1,.7-.185.717.717,0,0,1,.509.506l2.109,7.8a.714.714,0,0,1-.511.87.728.728,0,0,1-.187.025A.719.719,0,0,1,1.132,19.457Zm6-2.526L1.372,11.218a.712.712,0,0,1,.322-1.2.726.726,0,0,1,.7.186l5.76,5.713a.71.71,0,0,1,0,1.006.724.724,0,0,1-1.015,0Zm-3.4-7.393L5.518,7.77.144,2.44A1.422,1.422,0,0,1-.232,1.059,1.445,1.445,0,0,1,2.18.42L7.554,5.75,9.336,3.983l5.092,5.049-5.6,5.555ZM15.773,8.362l-5.76-5.713a.712.712,0,0,1,.323-1.195.724.724,0,0,1,.7.184l5.76,5.713a.709.709,0,0,1,0,1.008.725.725,0,0,1-1.017,0Z" transform="matrix(0.259, -0.966, 0.966, 0.259, 0.259, 16.422)"/></svg>