<svg xmlns="http://www.w3.org/2000/svg" width="28.5" height="28.5" viewBox="0 0 28.5 28.5"><defs><style>.a{fill:#fff;stroke:#e2e2e2;stroke-miterlimit:10;stroke-width:0.5px;}.b{fill:#2e5bff;}</style></defs><g transform="translate(0.237 -0.019)"><circle class="a" cx="14" cy="14" r="14" transform="translate(0.013 0.269)"/><path class="b" d="M5.747,11.493,7.836,9.1V7.125c1.559.538,2.612,1.539,2.612,2.686v1.682ZM0,11.493V9.811C0,8.665,1.053,7.663,2.612,7.125V9.1L4.7,11.493Zm4.7-1.441a.5.5,0,0,1,.523-.48.544.544,0,0,1,.369.141.456.456,0,0,1,.153.339.524.524,0,0,1-1.045,0Zm1.737-.986L5.225,8.621,4.01,9.066a.246.246,0,0,1-.25,0,.2.2,0,0,1-.1-.208V7.42a.2.2,0,0,1,.1-.208.244.244,0,0,1,.249,0l1.215.447,1.214-.447a.246.246,0,0,1,.25,0,.2.2,0,0,1,.1.208V8.863a.2.2,0,0,1-.1.208.246.246,0,0,1-.25,0ZM2.09,2.874A3.013,3.013,0,0,1,5.225,0,3.012,3.012,0,0,1,8.359,2.874,3.012,3.012,0,0,1,5.225,5.747,3.016,3.016,0,0,1,2.09,2.874Z" transform="translate(8.881 8.359)"/></g></svg>