<svg id="SvgjsSvg1001" width="288" height="288" xmlns="http://www.w3.org/2000/svg" version="1.1" xmlns:xlink="http://www.w3.org/1999/xlink" xmlns:svgjs="http://svgjs.com/svgjs"><defs id="SvgjsDefs1002"></defs><g id="SvgjsG1008" transform="matrix(0.9167,0,0,0.9167,11.995726853179946,11.994533966064466)"><svg xmlns="http://www.w3.org/2000/svg" width="288" height="288" viewBox="0 0 14 18.001"><path fill="#000000" d="M7.929,17.913,0,15V0L8.87,3.395A1.5,1.5,0,0,1,9.8,4.807V16.5a1.537,1.537,0,0,1-.594,1.227A1.338,1.338,0,0,1,8.4,18,1.317,1.317,0,0,1,7.929,17.913ZM11.2,15V4.807A3,3,0,0,0,9.341,1.982L4.162,0H12.6A1.453,1.453,0,0,1,14,1.5v12A1.453,1.453,0,0,1,12.6,15Z" class="color7e8ea9 svgShape"></path></svg></g></svg>